<svg width="512" xmlns="http://www.w3.org/2000/svg" height="512" id="screenshot-f6c64145-86ce-80e3-8007-4329466da5f0" viewBox="0 0 512 512" xmlns:xlink="http://www.w3.org/1999/xlink" fill="none" version="1.1"><g id="shape-f6c64145-86ce-80e3-8007-4329466da5f0" width="512" height="512" rx="0" ry="0" style="fill: rgb(0, 0, 0);"><g id="shape-f6c64145-86ce-80e3-8007-4329466e08b7"><g class="fills" id="fills-f6c64145-86ce-80e3-8007-4329466e08b7"><rect rx="64" ry="64" x="0" y="0" transform="matrix(1.000000, 0.000000, 0.000000, 1.000000, 0.000000, 0.000000)" width="512" height="512" style="fill: rgb(29, 29, 29);"/></g></g><g id="shape-f6c64145-86ce-80e3-8007-4329466e7634"><g class="fills" id="fills-f6c64145-86ce-80e3-8007-4329466e7634"><path d="M141.031005859375,290.1130065917969L243.283935546875,290.1130065917969L189.35198974609375,436.2439880371094C182.29296875,454.82598876953125,201.65802001953125,464.74798583984375,213.9649658203125,449.593994140625L378.2939453125,244.64999389648438C381.3709716796875,240.86099243164062,383,237.2530059814453,383,233.10400390625C383,226.2480010986328,377.7509765625,220.83599853515625,370.1510009765625,220.83599853515625L267.716064453125,220.83599853515625L321.8289794921875,74.70439910888672C328.7060546875,56.122802734375,309.52197265625,46.19999694824219,297.2149658203125,61.53480529785156L132.885986328125,266.29901123046875C129.80902099609375,270.26800537109375,128,273.8760070800781,128,277.8450012207031C128,284.8810119628906,133.42901611328125,290.1130065917969,141.031005859375,290.1130065917969Z" style="fill: rgb(247, 255, 0);"/></g></g></g></svg>