<svg width="545.617" xmlns="http://www.w3.org/2000/svg" height="211" id="screenshot-6303aa2b-e37f-80b7-8007-4539d4e6d0c5" viewBox="0 0 545.617 211" xmlns:xlink="http://www.w3.org/1999/xlink" fill="none" version="1.1"><g id="shape-6303aa2b-e37f-80b7-8007-4539d4e6d0c5"><defs><clipPath id="frame-clip-6303aa2b-e37f-80b7-8007-4539d4e6d0c5-render-1" class="frame-clip frame-clip-def"><rect rx="0" ry="0" x="0" y="0" width="545.6170024536511" height="211.00007339734017" transform="matrix(1.000000, 0.000000, 0.000000, 1.000000, 0.000000, 0.000000)"/></clipPath></defs><g class="frame-container-wrapper"><g class="frame-container-blur"><g class="frame-container-shadows"><g clip-path="url(#frame-clip-6303aa2b-e37f-80b7-8007-4539d4e6d0c5-render-1)" fill="none"><g class="fills" id="fills-6303aa2b-e37f-80b7-8007-4539d4e6d0c5"><rect rx="0" ry="0" x="0" y="0" width="545.6170024536511" height="211.00007339734017" transform="matrix(1.000000, 0.000000, 0.000000, 1.000000, 0.000000, 0.000000)" class="frame-background"/></g><g class="frame-children"><g id="shape-f6c64145-86ce-80e3-8007-432936239258"><g class="fills" id="fills-f6c64145-86ce-80e3-8007-432936239258"><path d="M80.55599975585938,37.40800476074219C94.7987060546875,37.40800476074219,105.64399719238281,40.67469787597656,113.09201049804688,47.2080078125C120.54000854492188,53.61070251464844,124.26400756835938,61.973297119140625,124.26400756835938,72.29598999023438C124.26400756835938,75.30130004882812,124.00299072265625,78.11070251464844,123.48001098632812,80.7239990234375C121.9119873046875,89.87069702148438,117.927001953125,98.03729248046875,111.52398681640625,105.2239990234375C105.12100219726562,112.41100311279297,96.56269836425781,117.50700378417969,85.84799194335938,120.51200103759766L107.99600219726562,175L70.16799926757812,175L50.76400375366211,123.05999755859375L42.72799301147461,123.05999755859375L33.515987396240234,175L-0.0000019408801108511398,175L24.303998947143555,37.40800476074219L80.55599975585938,37.40800476074219ZM89.17999267578125,82.09600830078125C89.44129943847656,80.00531005859375,89.57199096679688,78.63330078125,89.57199096679688,77.98001098632812C89.57199096679688,73.7987060546875,88.19999694824219,70.5972900390625,85.45599365234375,68.37600708007812C82.84269714355469,66.02400207519531,78.92269897460938,64.84799194335938,73.69599914550781,64.84799194335938L52.91999435424805,64.84799194335938L46.843990325927734,99.343994140625L67.6199951171875,99.343994140625C73.76129150390625,99.343994140625,78.59600830078125,97.84130859375,82.12399291992188,94.83599853515625C85.78269958496094,91.83070373535156,88.13470458984375,87.58399963378906,89.17999267578125,82.09600830078125ZM185.09100341796875,37.40800476074219L170.58700561523438,119.53199768066406C170.06500244140625,122.92900085449219,169.802978515625,125.28099822998047,169.802978515625,126.58799743652344C169.802978515625,132.5989990234375,171.50201416015625,137.23699951171875,174.89898681640625,140.50399780273438C178.2969970703125,143.63999938964844,183.32699584960938,145.20799255371094,189.99099731445312,145.20799255371094C197.83099365234375,145.20799255371094,204.2340087890625,142.98699951171875,209.19900512695312,138.54400634765625C214.16497802734375,134.1009979248047,217.36599731445312,127.76399993896484,218.802978515625,119.53199768066406L233.3070068359375,37.40800476074219L266.822998046875,37.40800476074219L252.31900024414062,119.53199768066406C250.0980224609375,131.94500732421875,245.65499877929688,142.46400451660156,238.99099731445312,151.08799743652344C232.4580078125,159.58099365234375,224.4219970703125,165.91900634765625,214.88299560546875,170.10000610351562C205.47500610351562,174.281005859375,195.218017578125,176.3719940185547,184.11099243164062,176.3719940185547C169.73800659179688,176.3719940185547,158.1090087890625,172.6479949951172,149.2230224609375,165.1999969482422C140.468994140625,157.7519989013672,136.09100341796875,146.9720001220703,136.09100341796875,132.86000061035156C136.09100341796875,128.6790008544922,136.48300170898438,124.23600006103516,137.26699829101562,119.53199768066406L151.57501220703125,37.40800476074219L185.09100341796875,37.40800476074219ZM545.6170043945312,37.40800476074219L521.31298828125,175L487.7969970703125,175L497.79296875,117.96399688720703L445.656982421875,117.96399688720703L435.6610107421875,175L402.14501953125,175L426.448974609375,37.40800476074219L459.9649658203125,37.40800476074219L450.3609619140625,91.50399780273438L502.49700927734375,91.50399780273438L512.1010131835938,37.40800476074219L545.6170043945312,37.40800476074219Z" style="fill: rgb(255, 255, 255);"/></g></g><g id="shape-f6c64145-86ce-80e3-8007-43293624158e"><g class="fills" id="fills-f6c64145-86ce-80e3-8007-43293624158e"><path d="M275.6400146484375,123.62200164794922L328.9729919433594,123.62200164794922L300.8429870605469,200.13299560546875C297.1619873046875,209.86199951171875,307.2619934082031,215.0570068359375,313.6809997558594,207.1219940185547L399.3900146484375,99.81930541992188C400.9949951171875,97.83560180664062,401.843994140625,95.9462890625,401.843994140625,93.77400207519531C401.843994140625,90.18429565429688,399.10699462890625,87.3507080078125,395.1419677734375,87.3507080078125L341.7149963378906,87.3507080078125L369.93896484375,10.840300559997559C373.5260009765625,1.1114188432693481,363.5199890136719,-4.083878517150879,357.10101318359375,3.9450371265411377L271.39300537109375,111.15399932861328C269.7879943847656,113.23200225830078,268.843994140625,115.12100219726562,268.843994140625,117.1989974975586C268.843994140625,120.88300323486328,271.6759948730469,123.62200164794922,275.6400146484375,123.62200164794922Z" style="fill: rgb(247, 255, 0);"/></g></g></g></g></g></g></g></g></svg>